<svg width="38" height="38" viewBox="0 0 38 38" fill="none" xmlns="http://www.w3.org/2000/svg">
<path d="M17.7901 37.9441C21.3108 37.9441 23.7273 34.3541 23.5291 30.839C23.4051 28.6395 23.7254 26.4408 25.0879 25.0878C26.4288 23.7562 28.5873 23.434 30.7509 23.5473C34.2669 23.7315 37.855 21.3154 37.855 17.7946C37.855 15.018 35.519 12.8596 32.9551 11.7937C29.8429 10.4998 27.3538 8.0102 26.0604 4.89772C24.9955 2.33483 22.838 -6.56411e-07 20.0627 -7.77725e-07C16.542 -9.31621e-07 14.1272 3.58936 14.3128 7.10521C14.4272 9.2707 14.1043 11.43 12.7672 12.7671C11.4301 14.1042 9.27085 14.4271 7.10536 14.3127C3.58952 14.127 0.000151865 16.5418 0.000151711 20.0626C0.00015159 22.8379 2.33643 24.9965 4.89469 26.0725C8.01405 27.3845 10.5081 29.9094 11.8005 33.047C12.8571 35.612 15.0161 37.9441 17.7901 37.9441Z" fill="white"/>
</svg>
