<svg width="23" height="24" viewBox="0 0 23 24" fill="none" xmlns="http://www.w3.org/2000/svg">
<path d="M9 0.415983C9.14642 0.593902 9.23612 0.811641 9.25751 1.04107C9.2789 1.27049 9.231 1.50106 9.12 1.70298C8.25279 3.2952 7.7999 5.07992 7.803 6.89298C7.803 12.9245 12.72 17.8085 18.78 17.8085C19.5705 17.8085 20.34 17.726 21.0795 17.5685C21.3062 17.5194 21.5423 17.5382 21.7584 17.6225C21.9745 17.7068 22.1609 17.8529 22.2945 18.0425C22.4355 18.2397 22.5074 18.4779 22.499 18.7201C22.4905 18.9624 22.4023 19.1951 22.248 19.382C21.0715 20.8271 19.5874 21.9915 17.9038 22.7903C16.2201 23.589 14.3795 24.0019 12.516 23.999C5.601 23.999 0 18.428 0 11.564C0 6.39798 3.171 1.96698 7.686 0.0889829C7.91091 -0.00606931 8.16058 -0.0255784 8.39752 0.0333864C8.63447 0.0923511 8.84588 0.226606 9 0.415983ZM7.287 1.96548C5.55091 2.89673 4.09955 4.28095 3.0872 5.97103C2.07484 7.66111 1.5393 9.5939 1.5375 11.564C1.5375 17.594 6.456 22.478 12.516 22.478C13.9672 22.4805 15.4044 22.1952 16.7446 21.6385C18.0847 21.0818 19.3012 20.2649 20.3235 19.235C19.818 19.298 19.3035 19.3295 18.78 19.3295C11.865 19.3295 6.2655 13.7585 6.2655 6.89448C6.2655 5.14398 6.6285 3.47748 7.287 1.96548Z" fill="#121212"/>
</svg>
